<svg xmlns="http://www.w3.org/2000/svg" viewBox="0 0 140 90"><g fill="#0e512f"><path d="M55 12h30v14l20 17H35l20-17z"/><rect x="42" y="42" width="56" height="32" rx="2"/><rect x="63" y="51" width="14" height="23" fill="#fff"/><rect x="17" y="60" width="106" height="8"/><circle cx="33" cy="76" r="9"/><circle cx="55" cy="77" r="9"/><circle cx="78" cy="77" r="9"/><circle cx="101" cy="76" r="9"/><path d="M22 89c1-10 5-15 11-15s10 5 11 15M44 89c1-10 5-15 11-15s10 5 11 15M67 89c1-10 5-15 11-15s10 5 11 15M90 89c1-10 5-15 11-15s10 5 11 15"/></g><path d="M70 2v15M64 8h12" stroke="#0e512f" stroke-width="5" stroke-linecap="round"/></svg>
