<svg xmlns="http://www.w3.org/2000/svg" width="128" height="128" viewBox="0 0 128 128">
  <rect width="128" height="128" fill="#fbf5e6"/>
  <circle cx="64" cy="64" r="46" fill="none" stroke="#1e4e36" stroke-width="2.8"/>
  
  <g fill="#0f4a2b" stroke="none">
    <path d="M64 53
             C64 44, 76 39, 81 47
             C84 52, 82 58, 76 63
             L64 74
             L52 63
             C46 58, 44 52, 47 47
             C52 39, 64 44, 64 53 Z"/>
    <path d="M30 81
             C34 70, 40 69, 47 73
             C52 76, 56 82, 61 88
             C57 92, 49 95, 41 93
             C35 91, 31 87, 30 81 Z"/>
    <path d="M98 81
             C94 70, 88 69, 81 73
             C76 76, 72 82, 67 88
             C71 92, 79 95, 87 93
             C93 91, 97 87, 98 81 Z"/>
    <rect x="39" y="69" width="8" height="18" rx="4" transform="rotate(-35 43 78)"/>
    <rect x="81" y="69" width="8" height="18" rx="4" transform="rotate(35 85 78)"/>
  </g>

</svg>
