<svg xmlns="http://www.w3.org/2000/svg" width="128" height="128" viewBox="0 0 128 128">
  <rect width="128" height="128" fill="#fbf5e6"/>
  <circle cx="64" cy="64" r="46" fill="none" stroke="#1e4e36" stroke-width="2.8"/>
  
  <g fill="none" stroke="#0f4a2b" stroke-width="3" stroke-linecap="round" stroke-linejoin="round">
    <path d="M40 67 Q52 60 64 67 Q76 60 88 67"/>
    <path d="M40 67 V90 Q52 84 64 90 Q76 84 88 90 V67"/>
    <path d="M64 67 V90"/>
    <path d="M46 73 Q55 72 60 76"/>
    <path d="M68 76 Q73 72 82 73"/>
  </g>
  <g fill="#c5942f" stroke="#c5942f" stroke-width="2" stroke-linecap="round" stroke-linejoin="round">
    <path d="M64 34 C70 42, 72 47, 64 54 C56 47, 58 42, 64 34 Z" fill="#c5942f"/>
    <path d="M64 55 V66"/>
    <path d="M59 66 H69"/>
  </g>

</svg>
