<svg xmlns="http://www.w3.org/2000/svg" viewBox="0 0 100 100"><circle cx="50" cy="50" r="45" fill="#fff" stroke="#0e3264" stroke-width="5"/><g fill="#0e3264"><circle cx="50" cy="31" r="10"/><circle cx="30" cy="38" r="8"/><circle cx="70" cy="38" r="8"/><path d="M33 70c0-17 7-27 17-27s17 10 17 27z"/><path d="M14 70c1-13 7-21 16-21 6 0 10 3 13 9-4 3-7 7-8 12z"/><path d="M86 70c-1-13-7-21-16-21-6 0-10 3-13 9 4 3 7 7 8 12z"/></g><circle cx="75" cy="72" r="15" fill="#fff" stroke="#0e3264" stroke-width="4"/><path d="M68 72l5 5 10-12" fill="none" stroke="#0e3264" stroke-width="5" stroke-linecap="round" stroke-linejoin="round"/></svg>
