<svg xmlns="http://www.w3.org/2000/svg" width="128" height="128" viewBox="0 0 128 128">
  <rect width="128" height="128" fill="#fbf5e6"/>
  <circle cx="64" cy="64" r="46" fill="none" stroke="#1e4e36" stroke-width="2.8"/>
  
  <g fill="#0f4a2b" stroke="none">
    <circle cx="42" cy="42" r="8"/>
    <circle cx="64" cy="56" r="6"/>
    <circle cx="86" cy="42" r="8"/>
    <path d="M33 54 Q42 49 51 54 V86 H44 V67 H40 V86 H33 Z"/>
    <path d="M57 63 Q64 59 71 63 V86 H66 V74 H62 V86 H57 Z"/>
    <path d="M77 54 Q86 49 95 54 V86 H88 V67 H84 V86 H77 Z"/>
    <path d="M50 60 L58 66"/>
    <path d="M78 60 L70 66"/>
  </g>

</svg>
